<?xml version="1.0" standalone="no"?>
<!DOCTYPE svg PUBLIC "-//W3C//DTD SVG 20010904//EN"
 "http://www.w3.org/TR/2001/REC-SVG-20010904/DTD/svg10.dtd">
<svg version="1.0" xmlns="http://www.w3.org/2000/svg"
 width="1811.000000pt" height="2466.000000pt" viewBox="0 0 1811.000000 2466.000000"
 preserveAspectRatio="xMidYMid meet">

<g transform="translate(0.000000,2466.000000) scale(0.100000,-0.100000)"
fill="#000000" stroke="none">
<path d="M267 24649 c-58 -14 -128 -53 -169 -96 -94 -97 -121 -255 -64 -379
34 -76 93 -135 171 -171 l60 -28 4435 0 4435 0 61 28 c76 35 135 94 171 172
23 50 28 73 28 140 0 67 -5 90 -28 140 -36 78 -95 137 -171 172 l-61 28 -4415
2 c-2542 0 -4431 -3 -4453 -8z"/>
<path d="M10357 24649 c-58 -14 -128 -53 -169 -96 -94 -97 -121 -255 -64 -379
34 -76 93 -135 171 -170 57 -26 69 -28 285 -35 390 -14 642 -36 960 -85 1303
-201 2512 -758 3519 -1622 171 -147 468 -437 621 -607 1288 -1434 1893 -3272
1704 -5175 -180 -1814 -1123 -3498 -2605 -4651 -938 -729 -2059 -1211 -3239
-1393 -323 -50 -577 -72 -970 -85 -224 -7 -238 -8 -292 -33 -267 -123 -267
-503 0 -626 73 -33 196 -39 512 -23 865 44 1656 206 2427 499 445 169 966 430
1374 688 1788 1131 3018 2927 3393 4954 167 901 167 1799 0 2700 -353 1907
-1464 3616 -3092 4754 -504 352 -1109 673 -1675 888 -761 289 -1556 454 -2402
498 -225 12 -405 11 -458 -1z"/>
<path d="M955 23097 c-66 -22 -118 -53 -157 -94 -75 -77 -114 -217 -88 -313
23 -87 703 -1755 734 -1802 40 -60 95 -103 159 -125 50 -17 194 -18 3192 -13
l3140 5 55 26 c220 103 271 386 100 557 -25 25 -70 57 -100 71 l-55 26 -2991
3 -2992 2 -35 88 c-229 570 -550 1359 -570 1398 -53 104 -160 171 -284 180
-42 2 -83 -1 -108 -9z"/>
<path d="M9987 21430 c-93 -24 -177 -92 -224 -182 -25 -48 -28 -63 -28 -153 0
-90 3 -105 28 -153 36 -69 99 -129 166 -160 50 -23 73 -26 250 -33 677 -29
1245 -175 1788 -459 893 -467 1543 -1240 1807 -2149 86 -296 120 -545 120
-886 0 -277 -10 -387 -59 -637 -99 -503 -338 -1005 -684 -1438 -97 -122 -317
-347 -451 -463 -674 -583 -1558 -922 -2485 -952 -215 -7 -273 -18 -341 -64
-100 -68 -154 -168 -154 -286 0 -162 113 -302 269 -335 104 -22 472 -2 776 41
1261 179 2390 855 3092 1850 633 898 870 2008 653 3064 -257 1250 -1109 2319
-2326 2917 -517 255 -1082 413 -1674 468 -165 15 -478 21 -523 10z"/>
<path d="M5255 13719 c-290 -45 -508 -152 -701 -344 -190 -189 -304 -424 -335
-690 -6 -56 -9 -325 -7 -710 l3 -620 26 -56 c37 -78 90 -133 165 -170 147 -73
339 -21 434 115 60 89 60 82 60 756 0 657 1 662 51 767 32 67 151 183 221 216
136 64 32 60 1698 66 l1515 6 58 27 c267 125 267 501 0 626 l-58 27 -1505 2
c-1431 1 -1511 0 -1625 -18z"/>
<path d="M7944 10215 c-90 -16 -199 -52 -289 -98 -259 -130 -474 -396 -561
-695 -58 -203 -55 35 -52 -3577 l3 -3310 27 -57 c37 -80 96 -140 171 -173 166
-75 373 -1 454 163 l28 57 5 3325 5 3325 23 65 c44 123 133 229 230 273 45 21
62 22 487 27 305 4 451 10 475 18 60 21 138 82 174 136 115 174 47 416 -143
505 l-56 26 -450 2 c-343 1 -469 -2 -531 -12z"/>
<path d="M4456 9454 c-99 -31 -188 -112 -222 -200 -19 -48 -19 -138 -19 -3974
l0 -3925 29 -62 c31 -69 89 -129 155 -163 23 -11 682 -266 1464 -567 1371
-526 1425 -546 1502 -550 103 -6 177 19 248 86 175 164 138 450 -73 556 -33
17 -1450 563 -2627 1012 -10 4 -13 764 -13 3752 0 3391 -2 3752 -16 3801 -29
98 -101 182 -189 221 -65 29 -172 35 -239 13z"/>
</g>
</svg>
