<?xml version="1.0" standalone="no"?>
<!DOCTYPE svg PUBLIC "-//W3C//DTD SVG 20010904//EN"
 "http://www.w3.org/TR/2001/REC-SVG-20010904/DTD/svg10.dtd">
<svg version="1.0" xmlns="http://www.w3.org/2000/svg"
 width="1742.000000pt" height="2423.000000pt" viewBox="0 0 1742.000000 2423.000000"
 preserveAspectRatio="xMidYMid meet">

<g transform="translate(0.000000,2423.000000) scale(0.100000,-0.100000)"
fill="#000000" stroke="none">
<path d="M1384 24220 c-6 -6 -258 -11 -696 -12 l-685 -3 691 -1827 691 -1828
4150 0 c3975 0 4479 -4 4705 -30 1104 -129 2078 -659 2730 -1484 436 -552 693
-1200 755 -1905 8 -92 8 -464 0 -540 -28 -262 -49 -389 -94 -568 -226 -905
-819 -1700 -1658 -2224 -142 -89 -466 -254 -613 -313 -425 -171 -871 -271
-1317 -296 -109 -6 -1302 -10 -3085 -10 l-2908 0 0 -67 c0 -38 0 -867 -1
-1843 0 -976 0 -3669 0 -5985 l1 -4210 1533 -536 1532 -536 3 4743 2 4743
1528 4 c1528 4 1578 6 1937 42 1908 195 3668 1077 4939 2475 984 1082 1617
2411 1820 3820 192 1332 14 2663 -520 3883 -454 1037 -1133 1942 -2019 2693
-1153 977 -2606 1599 -4140 1774 -49 6 -268 19 -485 30 -381 19 -548 20 -4590
20 -2765 0 -4199 -3 -4206 -10z"/>
</g>
</svg>
