<?xml version="1.0" standalone="no"?>
<!DOCTYPE svg PUBLIC "-//W3C//DTD SVG 20010904//EN"
 "http://www.w3.org/TR/2001/REC-SVG-20010904/DTD/svg10.dtd">
<svg version="1.0" xmlns="http://www.w3.org/2000/svg"
 width="1834.000000pt" height="2489.000000pt" viewBox="0 0 1834.000000 2489.000000"
 preserveAspectRatio="xMidYMid meet">

<g transform="translate(0.000000,2489.000000) scale(0.100000,-0.100000)"
fill="#000000" stroke="none">
<path d="M346 24874 c-171 -41 -308 -192 -338 -371 -39 -232 114 -464 343
-518 57 -13 567 -15 4464 -15 4835 0 4467 -4 4579 60 310 177 310 623 0 800
-112 64 257 60 -4584 59 -3779 -1 -4413 -3 -4464 -15z"/>
<path d="M10436 24874 c-171 -41 -308 -192 -338 -371 -39 -233 116 -467 343
-517 38 -8 155 -16 294 -20 729 -20 1406 -140 2080 -370 1897 -645 3422 -2086
4150 -3921 26 -66 83 -226 125 -355 509 -1535 426 -3210 -232 -4700 -334 -756
-844 -1486 -1451 -2076 -1262 -1227 -2906 -1915 -4679 -1960 -128 -3 -258 -10
-288 -16 -180 -34 -330 -193 -360 -380 -36 -233 126 -467 358 -517 126 -27
669 -2 1092 50 2266 276 4294 1523 5557 3414 1366 2047 1632 4653 709 6937
-550 1361 -1510 2558 -2730 3406 -1227 853 -2610 1322 -4131 1402 -256 13
-427 11 -499 -6z"/>
<path d="M1038 23321 c-219 -57 -368 -288 -330 -510 8 -49 113 -321 363 -937
193 -478 361 -888 374 -910 49 -84 139 -160 234 -198 42 -16 225 -17 3192 -16
3425 1 3194 -3 3310 55 27 14 76 52 108 84 252 252 132 675 -216 766 -50 13
-423 15 -2993 15 l-2935 0 -288 713 c-329 814 -328 812 -473 897 -98 58 -225
73 -346 41z"/>
<path d="M10073 21655 c-209 -57 -343 -231 -343 -445 0 -142 55 -262 159 -349
104 -86 180 -107 426 -115 1514 -49 2839 -924 3360 -2221 333 -830 294 -1751
-110 -2555 -327 -652 -878 -1197 -1560 -1545 -527 -269 -1092 -412 -1695 -431
-261 -8 -347 -33 -448 -132 -97 -95 -142 -199 -142 -332 0 -214 138 -391 347
-445 119 -31 525 -10 888 46 696 108 1347 359 1930 745 775 513 1373 1258
1682 2094 513 1386 232 2918 -746 4065 -655 769 -1596 1319 -2616 1529 -418
86 -982 131 -1132 91z"/>
<path d="M5415 13959 c-374 -56 -628 -178 -847 -407 -171 -180 -279 -384 -335
-636 -24 -107 -32 -1377 -9 -1465 51 -199 199 -331 398 -356 191 -24 404 106
480 292 l23 58 5 655 5 655 29 63 c47 101 145 179 268 214 32 9 429 13 1563
18 1059 4 1529 9 1550 16 80 30 134 63 192 120 186 183 187 465 0 648 -67 66
-140 107 -225 125 -65 14 -3004 14 -3097 0z"/>
<path d="M8050 10445 c-155 -25 -324 -93 -465 -188 -33 -22 -106 -86 -161
-141 -208 -207 -327 -454 -374 -771 -9 -60 -11 -895 -8 -3395 l3 -3315 21 -57
c99 -260 380 -376 629 -259 78 36 171 121 208 189 61 113 57 -144 57 3439 0
2386 3 3286 11 3325 24 113 101 219 185 254 27 11 114 14 442 14 435 0 470 3
565 51 106 55 194 159 229 272 16 54 20 87 16 160 -3 81 -8 102 -39 168 -61
128 -169 221 -294 253 -80 21 -893 22 -1025 1z"/>
<path d="M4551 9684 c-162 -43 -296 -183 -330 -344 -9 -42 -11 -1002 -9 -3975
l3 -3920 29 -70 c37 -88 142 -198 226 -237 86 -40 2870 -1105 2923 -1118 27
-7 85 -11 135 -8 75 3 99 9 163 39 266 128 348 458 171 692 -84 110 -36 89
-1440 627 l-1292 495 0 3715 c0 3306 -2 3722 -15 3775 -42 160 -170 289 -330
331 -64 18 -165 17 -234 -2z"/>
</g>
</svg>
