<?xml version="1.0" standalone="no"?>
<!DOCTYPE svg PUBLIC "-//W3C//DTD SVG 20010904//EN"
 "http://www.w3.org/TR/2001/REC-SVG-20010904/DTD/svg10.dtd">
<svg version="1.0" xmlns="http://www.w3.org/2000/svg"
 width="1742.000000pt" height="2422.000000pt" viewBox="0 0 1742.000000 2422.000000"
 preserveAspectRatio="xMidYMid meet">

<g transform="translate(0.000000,2422.000000) scale(0.100000,-0.100000)"
fill="#000000" stroke="none">
<path d="M698 24210 l-696 -5 693 -1830 693 -1830 4333 -6 c3072 -4 4362 -9
4431 -17 149 -17 255 -31 348 -48 717 -127 1350 -415 1900 -863 131 -107 411
-385 517 -513 374 -455 639 -1001 748 -1543 125 -616 85 -1240 -115 -1820
-310 -897 -985 -1657 -1874 -2109 -466 -238 -956 -379 -1516 -437 -139 -14
-919 -20 -3340 -22 l-2005 -2 -80 -23 c-329 -93 -571 -337 -657 -662 l-23 -85
0 -5663 0 -5664 1535 -533 1535 -533 5 4361 c5 4057 7 4367 22 4431 36 144 94
266 179 372 88 111 199 195 331 250 164 70 99 66 1388 74 1149 7 1234 10 1565
45 1690 182 3219 874 4465 2021 615 565 1154 1273 1541 2019 1065 2056 1065
4504 0 6560 -386 745 -919 1444 -1536 2014 -1353 1250 -3055 1964 -4915 2061
-199 10 -8065 10 -9472 0z"/>
</g>
</svg>
