<?xml version="1.0" standalone="no"?>
<!DOCTYPE svg PUBLIC "-//W3C//DTD SVG 20010904//EN"
 "http://www.w3.org/TR/2001/REC-SVG-20010904/DTD/svg10.dtd">
<svg version="1.0" xmlns="http://www.w3.org/2000/svg"
 width="1911.000000pt" height="2557.000000pt" viewBox="0 0 1911.000000 2557.000000"
 preserveAspectRatio="xMidYMid meet">

<g transform="translate(0.000000,2557.000000) scale(0.100000,-0.100000)"
fill="#000000" stroke="none">
<path d="M650 25555 c-138 -28 -260 -86 -363 -174 -359 -304 -383 -844 -51
-1175 102 -102 211 -165 374 -214 51 -16 312 -17 3520 -20 2551 -2 3484 0
3538 8 615 96 891 812 500 1297 -118 145 -280 240 -476 279 -105 20 -6940 20
-7042 -1z"/>
<path d="M10825 25563 c-298 -41 -556 -260 -652 -551 -26 -80 -28 -99 -28
-242 0 -143 2 -162 28 -242 71 -216 223 -388 429 -482 127 -59 170 -66 443
-76 281 -10 354 -14 575 -36 1846 -180 3554 -1148 4652 -2634 696 -943 1105
-2020 1215 -3200 12 -135 17 -283 17 -545 0 -387 -13 -578 -59 -902 -281
-1947 -1475 -3668 -3235 -4660 -789 -445 -1675 -725 -2590 -818 -301 -30 -573
-36 -1900 -38 l-1345 -3 -97 -22 c-183 -42 -378 -124 -513 -214 -332 -225
-572 -567 -669 -953 -61 -246 -57 -11 -54 -3295 l3 -2995 23 -75 c91 -291 324
-511 607 -571 93 -19 266 -14 360 11 282 73 494 280 581 565 18 57 19 191 21
3008 l3 2947 1088 0 c598 1 1155 1 1237 0 499 -3 1150 66 1680 176 2711 566
4969 2475 5947 5028 689 1799 689 3823 0 5622 -619 1616 -1765 3004 -3252
3939 -1101 693 -2337 1110 -3645 1230 -316 28 -761 43 -870 28z"/>
<path d="M1105 23365 c-413 -76 -699 -466 -647 -881 18 -142 59 -237 219 -506
77 -130 228 -384 334 -564 161 -271 207 -340 268 -406 112 -120 216 -184 376
-232 l70 -21 3535 -2 c5002 -4 5547 -6 5693 -26 720 -98 1305 -340 1822 -753
140 -112 376 -348 485 -484 293 -369 502 -809 584 -1237 42 -217 51 -308 51
-543 0 -235 -9 -326 -51 -543 -82 -428 -291 -868 -584 -1237 -109 -136 -345
-372 -485 -484 -388 -310 -849 -539 -1335 -661 -273 -69 -506 -101 -844 -115
-241 -10 -292 -19 -414 -76 -286 -131 -462 -408 -462 -724 0 -365 240 -677
595 -775 165 -45 659 -22 1095 50 913 153 1750 536 2455 1126 55 46 169 152
254 234 450 439 787 928 1028 1490 421 982 465 2086 123 3105 -294 877 -862
1651 -1635 2229 -805 603 -1754 945 -2800 1011 -103 6 -1642 10 -4340 10
l-4180 0 -175 297 c-96 164 -196 329 -221 368 -175 270 -498 409 -814 350z"/>
<path d="M5673 14630 c-240 -40 -360 -75 -529 -156 -175 -83 -311 -180 -455
-324 -240 -239 -383 -507 -452 -845 -22 -108 -22 -124 -22 -825 0 -713 0 -715
23 -793 84 -292 303 -504 590 -574 98 -23 275 -21 377 6 297 77 529 318 589
613 14 65 16 169 16 682 l0 605 23 13 c17 10 237 13 1082 13 1190 0 1104 -5
1272 76 209 100 365 289 429 519 25 90 26 309 1 400 -86 311 -344 542 -659
589 -35 5 -538 12 -1118 15 -998 5 -1061 4 -1167 -14z"/>
<path d="M4875 9480 c-303 -55 -544 -272 -637 -572 l-23 -73 -3 -3490 c-2
-2540 0 -3512 8 -3569 41 -285 233 -524 510 -635 489 -194 2889 -1105 2941
-1116 102 -22 259 -19 355 5 102 26 242 95 321 159 121 99 221 256 264 417 30
110 30 286 0 399 -59 219 -207 407 -399 506 -35 18 -588 234 -1230 480 l-1167
447 -5 3199 -5 3198 -31 92 c-92 270 -285 459 -546 534 -83 23 -271 34 -353
19z"/>
</g>
</svg>
