<?xml version="1.0" standalone="no"?>
<!DOCTYPE svg PUBLIC "-//W3C//DTD SVG 20010904//EN"
 "http://www.w3.org/TR/2001/REC-SVG-20010904/DTD/svg10.dtd">
<svg version="1.0" xmlns="http://www.w3.org/2000/svg"
 width="1934.000000pt" height="2580.000000pt" viewBox="0 0 1934.000000 2580.000000"
 preserveAspectRatio="xMidYMid meet">

<g transform="translate(0.000000,2580.000000) scale(0.100000,-0.100000)"
fill="#000000" stroke="none">
<path d="M741 25785 c-98 -22 -158 -44 -253 -92 -215 -110 -381 -315 -453
-559 -35 -117 -45 -304 -22 -411 13 -60 477 -1475 1017 -3104 111 -334 146
-415 233 -527 156 -203 418 -336 678 -343 46 -2 2055 -2 4464 -1 4107 1 4468
0 4670 -24 441 -51 896 -198 1283 -415 539 -302 968 -735 1236 -1249 146 -280
234 -557 282 -885 25 -167 25 -533 0 -700 -48 -328 -136 -605 -282 -885 -388
-744 -1108 -1309 -1981 -1556 -294 -83 -537 -118 -907 -134 -252 -10 -327 -25
-465 -90 -159 -76 -282 -184 -379 -333 -190 -292 -190 -692 0 -984 127 -195
321 -336 543 -394 225 -58 851 -18 1350 87 1213 256 2266 904 3007 1850 226
289 455 675 598 1009 562 1307 479 2765 -228 4015 -638 1129 -1794 1999 -3106
2340 -315 81 -526 118 -921 162 -83 9 -1118 13 -4289 17 l-4178 6 -228 690
-228 690 2817 5 2816 5 80 23 c115 33 268 112 353 182 141 118 254 294 304
475 31 115 31 345 0 460 -50 181 -163 357 -304 475 -85 70 -238 149 -353 182
l-80 23 -3505 2 c-2960 1 -3515 -1 -3569 -12z"/>
<path d="M10886 25785 c-294 -62 -529 -240 -660 -502 -38 -77 -75 -215 -84
-312 -33 -392 166 -742 519 -911 146 -69 209 -81 504 -91 399 -13 651 -36 975
-90 1664 -274 3160 -1187 4155 -2533 626 -848 1021 -1821 1159 -2859 42 -312
51 -455 51 -817 0 -362 -9 -505 -51 -817 -231 -1732 -1186 -3286 -2649 -4308
-856 -598 -1866 -988 -2900 -1120 -376 -48 -371 -48 -1935 -55 -1470 -6 -1486
-7 -1584 -28 -253 -55 -451 -144 -651 -292 -314 -233 -540 -579 -639 -979 -61
-244 -57 -37 -54 -3121 l3 -2815 22 -70 c48 -161 90 -242 182 -357 189 -238
507 -368 807 -329 378 50 667 292 781 656 l28 90 3 2707 2 2707 1318 4 c1378
4 1383 4 1820 53 2307 256 4411 1472 5782 3344 1006 1373 1550 3032 1550 4730
0 1268 -311 2551 -889 3665 -1028 1981 -2833 3470 -4989 4114 -574 172 -1200
285 -1822 331 -259 19 -676 22 -754 5z"/>
<path d="M5770 14859 c-349 -53 -607 -157 -867 -351 -343 -256 -583 -645 -669
-1088 -18 -92 -19 -289 -22 -5770 -2 -4314 0 -5697 9 -5765 37 -284 202 -531
450 -672 47 -27 611 -248 1519 -596 795 -305 1468 -561 1495 -570 178 -57 411
-49 592 19 229 86 436 290 523 515 50 131 64 201 63 339 0 94 -5 147 -21 213
-65 266 -243 487 -485 605 -45 22 -585 233 -1199 468 l-1118 428 0 5202 0
5202 33 6 c17 4 311 4 652 0 677 -7 700 -6 862 48 247 82 448 271 552 521 84
204 85 473 2 677 -65 159 -184 311 -317 406 -81 58 -211 119 -309 145 -74 20
-114 22 -565 29 -796 13 -1035 11 -1180 -11z"/>
</g>
</svg>
