<?xml version="1.0" standalone="no"?>
<!DOCTYPE svg PUBLIC "-//W3C//DTD SVG 20010904//EN"
 "http://www.w3.org/TR/2001/REC-SVG-20010904/DTD/svg10.dtd">
<svg version="1.0" xmlns="http://www.w3.org/2000/svg"
 width="1742.000000pt" height="2422.000000pt" viewBox="0 0 1742.000000 2422.000000"
 preserveAspectRatio="xMidYMid meet">

<g transform="translate(0.000000,2422.000000) scale(0.100000,-0.100000)"
fill="#000000" stroke="none">
<path d="M698 24210 l-696 -5 693 -1830 693 -1830 4333 -6 c3072 -4 4362 -9
4431 -17 149 -17 255 -31 348 -48 717 -127 1350 -415 1900 -863 131 -107 411
-385 517 -513 374 -455 639 -1001 748 -1543 125 -616 85 -1240 -115 -1820
-337 -975 -1101 -1781 -2100 -2217 -322 -140 -722 -253 -1075 -303 -281 -39
-246 -39 -3120 -44 l-2800 -6 -59 -23 c-154 -58 -270 -178 -322 -332 -18 -53
-19 -225 -19 -5898 l0 -5844 1535 -533 1535 -533 5 4486 5 4487 27 73 c38 104
83 176 158 252 74 73 164 130 260 163 l65 22 1285 6 c1281 6 1344 8 1685 44
1690 182 3219 874 4465 2021 615 565 1154 1273 1541 2019 1065 2056 1065 4504
0 6560 -386 745 -919 1444 -1536 2014 -1353 1250 -3055 1964 -4915 2061 -199
10 -8065 10 -9472 0z"/>
</g>
</svg>
